<mxfile host="app.diagrams.net" modified="2023-03-28T20:52:51.111Z" agent="Mozilla/5.0 (Macintosh; Intel Mac OS X 10_15_7) AppleWebKit/605.1.15 (KHTML, like Gecko) Version/16.3 Safari/605.1.15" etag="0v06Pgx2s1tZeZBI5BWr" version="21.1.1" type="device">
  <diagram name="StrÃ¡nka-1" id="3VBCaAHW6qODwrgH9Cj1">
    <mxGraphModel dx="1908" dy="2255" grid="1" gridSize="10" guides="1" tooltips="1" connect="1" arrows="1" fold="1" page="1" pageScale="1" pageWidth="827" pageHeight="1169" math="0" shadow="0">
      <root>
        <mxCell id="0" />
        <mxCell id="1" parent="0" />
        <mxCell id="uRJ4dflKP4ZvwXpApvr8-1" value="parsed: list of parsed antibodies (in the beginning it is filled with single antibodies)&lt;br&gt;&lt;div style=&quot;text-align: left;&quot;&gt;antibodies: list of double antibodies to parse&lt;/div&gt;&lt;div style=&quot;text-align: left;&quot;&gt;parsing_issues: ist of parsing issues encountered while parsing&lt;/div&gt;" style="text;align=center;html=1;verticalAlign=middle;whiteSpace=wrap;rounded=0;fillColor=#f5f5f5;fontColor=#333333;strokeColor=#666666;fillStyle=auto;" vertex="1" parent="1">
          <mxGeometry x="40" y="-40" width="440" height="50" as="geometry" />
        </mxCell>
        <mxCell id="uRJ4dflKP4ZvwXpApvr8-3" value="" style="endArrow=classic;html=1;rounded=0;" edge="1" parent="1">
          <mxGeometry width="50" height="50" relative="1" as="geometry">
            <mxPoint x="160" y="279.5" as="sourcePoint" />
            <mxPoint x="250" y="279.5" as="targetPoint" />
          </mxGeometry>
        </mxCell>
        <mxCell id="uRJ4dflKP4ZvwXpApvr8-5" value="Take antibody from antibodies list" style="text;strokeColor=#82b366;align=center;fillColor=#d5e8d4;html=1;verticalAlign=middle;whiteSpace=wrap;rounded=0;" vertex="1" parent="1">
          <mxGeometry x="50" y="250" width="100" height="60" as="geometry" />
        </mxCell>
        <mxCell id="uRJ4dflKP4ZvwXpApvr8-7" value="Yes" style="endArrow=classic;html=1;rounded=0;edgeStyle=elbowEdgeStyle;exitX=1;exitY=0.5;exitDx=0;exitDy=0;align=left;verticalAlign=bottom;" edge="1" parent="1" source="uRJ4dflKP4ZvwXpApvr8-8">
          <mxGeometry width="50" height="50" relative="1" as="geometry">
            <mxPoint x="340" y="280" as="sourcePoint" />
            <mxPoint x="450" y="240" as="targetPoint" />
            <Array as="points">
              <mxPoint x="330" y="260" />
            </Array>
            <mxPoint as="offset" />
          </mxGeometry>
        </mxCell>
        <mxCell id="uRJ4dflKP4ZvwXpApvr8-8" value="Is antibody in parsed?" style="text;strokeColor=none;align=center;fillColor=none;html=1;verticalAlign=middle;whiteSpace=wrap;rounded=0;" vertex="1" parent="1">
          <mxGeometry x="260" y="265" width="60" height="30" as="geometry" />
        </mxCell>
        <mxCell id="uRJ4dflKP4ZvwXpApvr8-9" value="No" style="edgeStyle=elbowEdgeStyle;orthogonalLoop=1;jettySize=auto;html=1;rounded=0;align=left;verticalAlign=top;" edge="1" parent="1">
          <mxGeometry width="80" relative="1" as="geometry">
            <mxPoint x="330" y="280" as="sourcePoint" />
            <mxPoint x="450" y="320" as="targetPoint" />
            <Array as="points">
              <mxPoint x="330" y="300" />
            </Array>
          </mxGeometry>
        </mxCell>
        <mxCell id="uRJ4dflKP4ZvwXpApvr8-10" value="continue" style="text;strokeColor=none;align=center;fillColor=none;html=1;verticalAlign=middle;whiteSpace=wrap;rounded=0;" vertex="1" parent="1">
          <mxGeometry x="460" y="220" width="60" height="30" as="geometry" />
        </mxCell>
        <mxCell id="uRJ4dflKP4ZvwXpApvr8-11" value="" style="edgeStyle=elbowEdgeStyle;orthogonalLoop=1;jettySize=auto;html=1;rounded=0;elbow=vertical;" edge="1" parent="1">
          <mxGeometry width="80" relative="1" as="geometry">
            <mxPoint x="489.5" y="220" as="sourcePoint" />
            <mxPoint x="100" y="240" as="targetPoint" />
            <Array as="points">
              <mxPoint x="300" y="70" />
            </Array>
          </mxGeometry>
        </mxCell>
        <mxCell id="uRJ4dflKP4ZvwXpApvr8-12" value="Is antibody have MFI under cutoff?" style="text;strokeColor=none;align=center;fillColor=none;html=1;verticalAlign=middle;whiteSpace=wrap;rounded=0;" vertex="1" parent="1">
          <mxGeometry x="460" y="310" width="60" height="30" as="geometry" />
        </mxCell>
        <mxCell id="uRJ4dflKP4ZvwXpApvr8-15" value="Yes" style="endArrow=classic;html=1;rounded=0;edgeStyle=elbowEdgeStyle;exitX=1;exitY=0.5;exitDx=0;exitDy=0;align=left;verticalAlign=bottom;" edge="1" parent="1">
          <mxGeometry width="50" height="50" relative="1" as="geometry">
            <mxPoint x="520" y="320" as="sourcePoint" />
            <mxPoint x="650" y="280" as="targetPoint" />
            <Array as="points">
              <mxPoint x="530" y="300" />
            </Array>
            <mxPoint as="offset" />
          </mxGeometry>
        </mxCell>
        <mxCell id="uRJ4dflKP4ZvwXpApvr8-16" value="No" style="edgeStyle=elbowEdgeStyle;orthogonalLoop=1;jettySize=auto;html=1;rounded=0;align=left;verticalAlign=middle;" edge="1" parent="1">
          <mxGeometry x="0.5556" y="-10" width="80" relative="1" as="geometry">
            <mxPoint x="530" y="320" as="sourcePoint" />
            <mxPoint x="650" y="670" as="targetPoint" />
            <Array as="points">
              <mxPoint x="530" y="350" />
            </Array>
            <mxPoint as="offset" />
          </mxGeometry>
        </mxCell>
        <mxCell id="uRJ4dflKP4ZvwXpApvr8-18" value="Both chains have MFI under cutoff&lt;br&gt;for all antibodies in the antibodies list" style="edgeStyle=elbowEdgeStyle;orthogonalLoop=1;jettySize=auto;html=1;rounded=0;align=center;verticalAlign=bottom;" edge="1" parent="1">
          <mxGeometry x="0.3326" width="80" relative="1" as="geometry">
            <mxPoint x="660" y="279.5" as="sourcePoint" />
            <mxPoint x="970" y="140" as="targetPoint" />
            <Array as="points">
              <mxPoint x="680" y="240" />
            </Array>
            <mxPoint as="offset" />
          </mxGeometry>
        </mxCell>
        <mxCell id="uRJ4dflKP4ZvwXpApvr8-19" value="One of these chains have MFI below cutoff&lt;br&gt;for other antibodies in the list" style="edgeStyle=none;orthogonalLoop=1;jettySize=auto;html=1;rounded=0;verticalAlign=bottom;" edge="1" parent="1">
          <mxGeometry width="80" relative="1" as="geometry">
            <mxPoint x="680" y="279.5" as="sourcePoint" />
            <mxPoint x="970" y="280" as="targetPoint" />
            <Array as="points" />
          </mxGeometry>
        </mxCell>
        <mxCell id="uRJ4dflKP4ZvwXpApvr8-20" value="Both chains have MFI below cutoff&lt;br&gt;for other antibodies in the list" style="edgeStyle=elbowEdgeStyle;orthogonalLoop=1;jettySize=auto;html=1;rounded=0;align=center;verticalAlign=top;" edge="1" parent="1">
          <mxGeometry x="0.3617" width="80" relative="1" as="geometry">
            <mxPoint x="670" y="280" as="sourcePoint" />
            <mxPoint x="970" y="450" as="targetPoint" />
            <Array as="points">
              <mxPoint x="680" y="340" />
            </Array>
            <mxPoint as="offset" />
          </mxGeometry>
        </mxCell>
        <mxCell id="uRJ4dflKP4ZvwXpApvr8-28" style="edgeStyle=orthogonalEdgeStyle;rounded=0;orthogonalLoop=1;jettySize=auto;html=1;endArrow=classic;endFill=1;" edge="1" parent="1">
          <mxGeometry relative="1" as="geometry">
            <mxPoint x="460" y="70" as="targetPoint" />
            <mxPoint x="1080" y="100" as="sourcePoint" />
            <Array as="points">
              <mxPoint x="1080" y="70" />
            </Array>
          </mxGeometry>
        </mxCell>
        <mxCell id="uRJ4dflKP4ZvwXpApvr8-21" value="Add both chains separately to the parsed with average MFI across all antibodies with these chains" style="text;strokeColor=none;align=center;fillColor=none;html=1;verticalAlign=middle;whiteSpace=wrap;rounded=0;" vertex="1" parent="1">
          <mxGeometry x="990" y="110" width="180" height="50" as="geometry" />
        </mxCell>
        <mxCell id="uRJ4dflKP4ZvwXpApvr8-23" value="chain with negative MFI representation" style="edgeStyle=elbowEdgeStyle;orthogonalLoop=1;jettySize=auto;html=1;rounded=0;align=center;verticalAlign=bottom;entryX=0;entryY=0.5;entryDx=0;entryDy=0;" edge="1" parent="1" target="uRJ4dflKP4ZvwXpApvr8-24">
          <mxGeometry x="0.1097" width="80" relative="1" as="geometry">
            <mxPoint x="980" y="279.5" as="sourcePoint" />
            <mxPoint x="1250" y="250" as="targetPoint" />
            <Array as="points">
              <mxPoint x="1010" y="260" />
            </Array>
            <mxPoint as="offset" />
          </mxGeometry>
        </mxCell>
        <mxCell id="uRJ4dflKP4ZvwXpApvr8-29" style="edgeStyle=elbowEdgeStyle;rounded=0;orthogonalLoop=1;jettySize=auto;html=1;endArrow=classic;endFill=1;exitX=1;exitY=0.5;exitDx=0;exitDy=0;" edge="1" parent="1" source="uRJ4dflKP4ZvwXpApvr8-24">
          <mxGeometry relative="1" as="geometry">
            <mxPoint x="1050" y="70" as="targetPoint" />
            <Array as="points">
              <mxPoint x="1470" y="140" />
            </Array>
          </mxGeometry>
        </mxCell>
        <mxCell id="uRJ4dflKP4ZvwXpApvr8-24" value="Add chain to the parsed with average MFI across all antibodies with this chain" style="text;strokeColor=none;align=center;fillColor=none;html=1;verticalAlign=middle;whiteSpace=wrap;rounded=0;" vertex="1" parent="1">
          <mxGeometry x="1260" y="220" width="180" height="50" as="geometry" />
        </mxCell>
        <mxCell id="uRJ4dflKP4ZvwXpApvr8-25" value="chain without negative MFI representation" style="edgeStyle=elbowEdgeStyle;orthogonalLoop=1;jettySize=auto;html=1;rounded=0;align=center;verticalAlign=top;" edge="1" parent="1">
          <mxGeometry x="0.1626" width="80" relative="1" as="geometry">
            <mxPoint x="980" y="279.5" as="sourcePoint" />
            <mxPoint x="1260" y="310" as="targetPoint" />
            <Array as="points">
              <mxPoint x="1010" y="260" />
            </Array>
            <mxPoint x="1" as="offset" />
          </mxGeometry>
        </mxCell>
        <mxCell id="uRJ4dflKP4ZvwXpApvr8-30" style="edgeStyle=elbowEdgeStyle;rounded=0;orthogonalLoop=1;jettySize=auto;html=1;exitX=1;exitY=0.5;exitDx=0;exitDy=0;endArrow=block;endFill=1;" edge="1" parent="1" source="uRJ4dflKP4ZvwXpApvr8-26">
          <mxGeometry relative="1" as="geometry">
            <mxPoint x="1440" y="70" as="targetPoint" />
            <Array as="points">
              <mxPoint x="1470" y="210" />
            </Array>
          </mxGeometry>
        </mxCell>
        <mxCell id="uRJ4dflKP4ZvwXpApvr8-26" value="Add chain to the parsed with average MFI across all antibodies with negative MFI representation of this chain" style="text;strokeColor=none;align=center;fillColor=none;html=1;verticalAlign=middle;whiteSpace=wrap;rounded=0;" vertex="1" parent="1">
          <mxGeometry x="1260" y="290" width="180" height="50" as="geometry" />
        </mxCell>
        <mxCell id="uRJ4dflKP4ZvwXpApvr8-31" style="edgeStyle=orthogonalEdgeStyle;rounded=0;orthogonalLoop=1;jettySize=auto;html=1;endArrow=classic;endFill=1;" edge="1" parent="1" source="uRJ4dflKP4ZvwXpApvr8-27">
          <mxGeometry relative="1" as="geometry">
            <mxPoint x="1470" y="280" as="targetPoint" />
          </mxGeometry>
        </mxCell>
        <mxCell id="uRJ4dflKP4ZvwXpApvr8-27" value="Add this antibody as theoretical double with average MFI across all antibodies with these chains.&lt;br&gt;Also add parsing issue to the list about this situation" style="text;strokeColor=none;align=center;fillColor=none;html=1;verticalAlign=middle;whiteSpace=wrap;rounded=0;" vertex="1" parent="1">
          <mxGeometry x="980" y="420" width="180" height="70" as="geometry" />
        </mxCell>
        <mxCell id="uRJ4dflKP4ZvwXpApvr8-33" value="chain with positive MFI representation&lt;br&gt;in the antibodies list" style="edgeStyle=elbowEdgeStyle;orthogonalLoop=1;jettySize=auto;html=1;rounded=0;align=center;verticalAlign=bottom;entryX=0;entryY=0.5;entryDx=0;entryDy=0;" edge="1" parent="1">
          <mxGeometry x="0.1097" width="80" relative="1" as="geometry">
            <mxPoint x="650" y="670" as="sourcePoint" />
            <mxPoint x="930" y="640" as="targetPoint" />
            <Array as="points">
              <mxPoint x="680" y="655" />
            </Array>
            <mxPoint as="offset" />
          </mxGeometry>
        </mxCell>
        <mxCell id="uRJ4dflKP4ZvwXpApvr8-34" value="chain without positive MFI representation&lt;br&gt;in the antibodies list" style="edgeStyle=elbowEdgeStyle;orthogonalLoop=1;jettySize=auto;html=1;rounded=0;align=center;verticalAlign=top;" edge="1" parent="1">
          <mxGeometry x="0.1683" width="80" relative="1" as="geometry">
            <mxPoint x="650" y="670" as="sourcePoint" />
            <mxPoint x="930" y="705" as="targetPoint" />
            <Array as="points">
              <mxPoint x="680" y="655" />
            </Array>
            <mxPoint as="offset" />
          </mxGeometry>
        </mxCell>
        <mxCell id="uRJ4dflKP4ZvwXpApvr8-37" style="edgeStyle=orthogonalEdgeStyle;rounded=0;orthogonalLoop=1;jettySize=auto;html=1;" edge="1" parent="1">
          <mxGeometry relative="1" as="geometry">
            <mxPoint x="1470" y="430" as="targetPoint" />
            <mxPoint x="1000" y="640" as="sourcePoint" />
            <Array as="points">
              <mxPoint x="1470" y="640" />
            </Array>
          </mxGeometry>
        </mxCell>
        <mxCell id="uRJ4dflKP4ZvwXpApvr8-36" value="continue" style="text;strokeColor=none;align=center;fillColor=none;html=1;verticalAlign=middle;whiteSpace=wrap;rounded=0;" vertex="1" parent="1">
          <mxGeometry x="940" y="620" width="60" height="40" as="geometry" />
        </mxCell>
        <mxCell id="uRJ4dflKP4ZvwXpApvr8-39" style="edgeStyle=orthogonalEdgeStyle;rounded=0;orthogonalLoop=1;jettySize=auto;html=1;" edge="1" parent="1" source="uRJ4dflKP4ZvwXpApvr8-38">
          <mxGeometry relative="1" as="geometry">
            <mxPoint x="1470" y="570" as="targetPoint" />
          </mxGeometry>
        </mxCell>
        <mxCell id="uRJ4dflKP4ZvwXpApvr8-38" value="Add this chain to the parsed with average MFI across all antibodies with this chain" style="text;strokeColor=none;align=center;fillColor=none;html=1;verticalAlign=middle;whiteSpace=wrap;rounded=0;" vertex="1" parent="1">
          <mxGeometry x="930" y="680" width="180" height="50" as="geometry" />
        </mxCell>
        <mxCell id="uRJ4dflKP4ZvwXpApvr8-40" value="For cykle throw all antibodies in the list" style="text;strokeColor=none;align=center;fillColor=none;html=1;verticalAlign=middle;whiteSpace=wrap;rounded=0;" vertex="1" parent="1">
          <mxGeometry x="100" y="40" width="240" height="30" as="geometry" />
        </mxCell>
      </root>
    </mxGraphModel>
  </diagram>
</mxfile>
